# xmcd
#
# Track frame offsets:
#	150
#	18776
#	41722
#	60260
#	75602
#	89506
#	107578
#	122201
#	136727
#	152962
#	168866
#	186660
#
# Disc length: 2818 seconds
# Revision: 0
# Processed by: cddbd v1.5.2PL0 Copyright (c) Steve Scherf et al.
# Submitted via: dBpowerAMP V12.0
#
DISCID=950b000c
DTITLE=Earl Thomas  - Crow
DYEAR=2016
DGENRE=Blues
TTITLE0=Some Kind of Song
TTITLE1=Do I Know You?
TTITLE2=She's My Baby
TTITLE3=Shotgun Wedding
TTITLE4=Happiness
TTITLE5=Howlin'
TTITLE6=Love School
TTITLE7=I Don't Believe It
TTITLE8=Somebody's Callin'
TTITLE9=High Life
TTITLE10=North Country Blue
TTITLE11=When Forever
EXTD=
EXTT0=
EXTT1=
EXTT2=
EXTT3=
EXTT4=
EXTT5=
EXTT6=
EXTT7=
EXTT8=
EXTT9=
EXTT10=
EXTT11=
PLAYORDER=
